<svg width="24" height="24" viewBox="0 0 24 24" fill="none" xmlns="http://www.w3.org/2000/svg">
<path d="M11.2747 4.58925C10.3357 3.64769 9.09809 3.06251 7.7745 2.93422C6.45091 2.80594 5.12395 3.14256 4.02157 3.88627C2.91919 4.62998 2.11018 5.73435 1.73352 7.00968C1.35686 8.28502 1.43605 9.65171 1.95749 10.875H5.76824L7.37099 8.07C7.53933 7.77527 7.78451 7.53176 8.08039 7.36545C8.37627 7.19913 8.71174 7.11625 9.05103 7.12564C9.39032 7.13503 9.72069 7.23635 10.0069 7.41878C10.2931 7.60121 10.5245 7.85791 10.6762 8.1615L12.2962 11.403L13.4827 9.7725C13.6337 9.56499 13.8256 9.39067 14.0467 9.26034C14.2677 9.13001 14.5132 9.04644 14.7678 9.0148C15.0225 8.98317 15.2809 9.00413 15.5271 9.07641C15.7733 9.14869 16.0021 9.27074 16.1992 9.435L17.928 10.875H22.0912C22.5778 9.64112 22.6245 8.27733 22.2237 7.01301C21.8229 5.74869 20.9989 4.66095 19.8904 3.93272C18.7819 3.20449 17.4564 2.8802 16.1369 3.01438C14.8173 3.14856 13.5842 3.73303 12.645 4.6695L12 5.3145L11.2755 4.58925H11.2747ZM11.4525 21.513L4.99649 14.625H6.85724C7.18774 14.6249 7.51233 14.5374 7.79814 14.3715C8.08395 14.2055 8.32082 13.967 8.48474 13.68L8.88974 12.972L10.3222 15.8385C10.4662 16.1266 10.6819 16.3728 10.9487 16.5533C11.2154 16.7338 11.5241 16.8426 11.8451 16.8691C12.1661 16.8956 12.4885 16.839 12.7812 16.7048C13.074 16.5705 13.3272 16.3631 13.5165 16.1025L15.339 13.5975L16.0492 14.19C16.3863 14.471 16.8112 14.625 17.25 14.625H19.101L12.543 21.5175C12.4726 21.5914 12.3878 21.6502 12.2939 21.6902C12.2 21.7303 12.0989 21.7507 11.9968 21.7503C11.8947 21.7499 11.7937 21.7286 11.7002 21.6878C11.6066 21.647 11.5223 21.5875 11.4525 21.513ZM9.67049 8.66475C9.61045 8.5445 9.51919 8.4426 9.40626 8.3697C9.29334 8.2968 9.1629 8.25559 9.02859 8.25038C8.89428 8.24516 8.76104 8.27614 8.6428 8.34007C8.52457 8.40399 8.42568 8.49852 8.35649 8.61375L6.32549 12H2.00024C1.80133 12 1.61057 12.079 1.46991 12.2197C1.32926 12.3603 1.25024 12.5511 1.25024 12.75C1.25024 12.9489 1.32926 13.1397 1.46991 13.2803C1.61057 13.421 1.80133 13.5 2.00024 13.5H6.74999C6.87941 13.5 7.00662 13.4665 7.11925 13.4027C7.23188 13.339 7.3261 13.2472 7.39274 13.1363L8.93999 10.557L11.3295 15.3353C11.3871 15.4504 11.4734 15.5488 11.58 15.6209C11.6866 15.6931 11.8101 15.7366 11.9384 15.7472C12.0667 15.7578 12.1956 15.7352 12.3127 15.6816C12.4297 15.628 12.531 15.5451 12.6067 15.441L15.135 11.964L16.77 13.326C16.9047 13.4384 17.0746 13.4999 17.25 13.5H21.75C21.9489 13.5 22.1397 13.421 22.2803 13.2803C22.421 13.1397 22.5 12.9489 22.5 12.75C22.5 12.5511 22.421 12.3603 22.2803 12.2197C22.1397 12.079 21.9489 12 21.75 12H17.5215L15.48 10.299C15.4011 10.2333 15.3096 10.1844 15.2111 10.1555C15.1126 10.1266 15.0092 10.1182 14.9073 10.1308C14.8055 10.1435 14.7073 10.1769 14.6188 10.2291C14.5304 10.2812 14.4536 10.351 14.3932 10.434L12.1192 13.5615L9.67049 8.664V8.66475Z" fill="currentcolor"/>
</svg>
