<svg width="24" height="24" viewBox="0 0 24 24" fill="none" xmlns="http://www.w3.org/2000/svg">
<path d="M4.33098 17.8301C4.2261 17.9346 4.14288 18.0588 4.0861 18.1955C4.02932 18.3323 4.00009 18.4789 4.00009 18.627C4.00009 18.775 4.02932 18.9216 4.0861 19.0584C4.14288 19.1951 4.2261 19.3193 4.33098 19.4238C4.54327 19.6334 4.82956 19.7509 5.12785 19.7509C5.42614 19.7509 5.71243 19.6334 5.92473 19.4238L11.8779 13.4707L17.831 19.4238C18.0433 19.6334 18.3296 19.7509 18.6279 19.7509C18.9261 19.7509 19.2124 19.6334 19.4247 19.4238C19.5296 19.3193 19.6128 19.1951 19.6696 19.0584C19.7264 18.9216 19.7556 18.775 19.7556 18.627C19.7556 18.4789 19.7264 18.3323 19.6696 18.1955C19.6128 18.0588 19.5296 17.9346 19.4247 17.8301L13.4716 11.877L19.4247 5.92383C19.6361 5.71248 19.7548 5.42584 19.7548 5.12695C19.7548 4.97896 19.7257 4.83241 19.669 4.69569C19.6124 4.55896 19.5294 4.43472 19.4247 4.33008C19.3201 4.22543 19.1958 4.14242 19.0591 4.08578C18.9224 4.02915 18.7758 4 18.6279 4C18.329 4 18.0423 4.11873 17.831 4.33008L11.8779 10.2832L5.92473 4.33008C5.71338 4.11873 5.42674 4 5.12785 4C4.82897 4 4.54232 4.11873 4.33098 4.33008C4.11963 4.54142 4.0009 4.82807 4.0009 5.12695C4.0009 5.42584 4.11963 5.71248 4.33098 5.92383L10.2841 11.877L4.33098 17.8301Z" fill="currentcolor"/>
</svg>
