<svg width="24" height="24" viewBox="0 0 24 24" fill="none" xmlns="http://www.w3.org/2000/svg">
<path d="M12 2C10.0222 2 8.08879 2.58649 6.4443 3.6853C4.79981 4.78412 3.51809 6.3459 2.76121 8.17316C2.00433 10.0004 1.8063 12.0111 2.19215 13.9509C2.578 15.8907 3.53041 17.6725 4.92894 19.0711C6.32746 20.4696 8.10929 21.422 10.0491 21.8078C11.9889 22.1937 13.9996 21.9957 15.8268 21.2388C17.6541 20.4819 19.2159 19.2002 20.3147 17.5557C21.4135 15.9112 22 13.9778 22 12C22 11.4889 21.9556 10.9778 21.8889 10.4889C21.3337 11.2674 20.6001 11.9016 19.7496 12.3385C18.899 12.7754 17.9562 13.0022 17 13C15.728 13 14.4889 12.596 13.4613 11.8463C12.4338 11.0965 11.6709 10.0398 11.2828 8.82845C10.8947 7.61712 10.9014 6.31381 11.3019 5.10651C11.7023 3.8992 12.476 2.85031 13.5111 2.11111C13.0222 2.04444 12.5111 2 12 2Z" fill="currentcolor"/>
</svg>
