<svg width="24" height="24" viewBox="0 0 24 24" fill="none" xmlns="http://www.w3.org/2000/svg">
<path d="M3.53143 7.51C4.33797 5.85324 5.57526 4.46051 7.10501 3.48747C8.63476 2.51443 10.3967 1.99942 12.1939 2C14.8064 2 17.0011 2.99 18.6791 4.605L15.8998 7.473C14.8946 6.482 13.6169 5.977 12.1939 5.977C9.66862 5.977 7.53112 7.737 6.77015 10.1C6.57628 10.7 6.46577 11.34 6.46577 12C6.46577 12.66 6.57628 13.3 6.77015 13.9C7.53209 16.264 9.66862 18.023 12.1939 18.023C13.4977 18.023 14.6077 17.668 15.4762 17.068C15.9798 16.726 16.4108 16.2822 16.7434 15.7635C17.076 15.2448 17.3031 14.6619 17.4111 14.05H12.1939V10.182H21.3236C21.438 10.836 21.5 11.518 21.5 12.227C21.5 15.273 20.4434 17.837 18.6093 19.577C17.0059 21.105 14.8112 22 12.1939 22C10.9207 22.0005 9.65993 21.7422 8.48359 21.2399C7.30724 20.7375 6.2384 20.0009 5.33813 19.0722C4.43787 18.1435 3.72385 17.0409 3.23687 15.8275C2.74988 14.614 2.49949 13.3134 2.5 12C2.5 10.386 2.87418 8.86 3.53143 7.51Z" fill="currentcolor"/>
</svg>
