<svg width="24" height="24" viewBox="0 0 24 24" fill="none" xmlns="http://www.w3.org/2000/svg">
<path d="M3.62087 6.76833C3.28949 7.21015 3.37902 7.83695 3.82085 8.16833C4.26267 8.49971 4.88947 8.41018 5.22085 7.96836L3.62087 6.76833ZM17.1877 7.23338C17.5782 7.6239 18.2114 7.62388 18.6019 7.23335C18.9924 6.84282 18.9924 6.20965 18.6019 5.81914L17.1877 7.23338ZM20.379 17.2317C20.7104 16.7898 20.6209 16.163 20.179 15.8317C19.7372 15.5003 19.1104 15.5898 18.779 16.0316L20.379 17.2317ZM6.81219 16.7666C6.42166 16.3761 5.78849 16.3761 5.39798 16.7666C5.00746 17.1572 5.00747 17.7903 5.398 18.1809L6.81219 16.7666ZM19 9.05224C19 9.89513 18.3167 10.5785 17.4736 10.5785V12.5785C19.4212 12.5785 21 10.9998 21 9.05224H19ZM17.4736 10.5785C16.6306 10.5785 15.9473 9.89513 15.9473 9.05224H13.9473C13.9473 10.9998 15.5261 12.5785 17.4736 12.5785V10.5785ZM15.9473 9.05224C15.9473 8.20935 16.6306 7.52598 17.4736 7.52598V5.52598C15.5261 5.52598 13.9473 7.10471 13.9473 9.05224H15.9473ZM17.4736 7.52598C18.3167 7.52598 19 8.20935 19 9.05224H21C21 7.10471 19.4212 5.52598 17.4736 5.52598V7.52598ZM4.42086 7.36834C5.22085 7.96836 5.22062 7.96866 5.22041 7.96895C5.22035 7.96903 5.22014 7.9693 5.22002 7.96946C5.21979 7.96977 5.21959 7.97004 5.21942 7.97026C5.2191 7.97069 5.21892 7.97092 5.21889 7.97096C5.21883 7.97104 5.21937 7.97033 5.22049 7.96887C5.22275 7.96595 5.22736 7.96 5.2343 7.95123C5.24818 7.93369 5.27136 7.90492 5.3036 7.8665C5.36816 7.78958 5.46866 7.67452 5.60337 7.53396C5.87362 7.25197 6.27671 6.8724 6.79852 6.49292C7.846 5.73115 9.32804 5 11.1578 5V3C8.777 3 6.89057 3.95302 5.62221 4.87542C4.98611 5.33803 4.49445 5.80054 4.15942 6.15012C3.9915 6.32534 3.86173 6.47343 3.77168 6.58072C3.72662 6.63441 3.6914 6.678 3.66623 6.7098C3.65364 6.7257 3.64355 6.73867 3.63598 6.74849C3.6322 6.7534 3.62905 6.75753 3.62653 6.76084C3.62527 6.7625 3.62417 6.76396 3.62322 6.7652C3.62275 6.76583 3.62232 6.7664 3.62193 6.76692C3.62173 6.76718 3.62147 6.76753 3.62137 6.76766C3.62112 6.768 3.62087 6.76833 4.42086 7.36834ZM11.1578 5C13.0586 5 14.5789 5.56967 15.6264 6.14103C16.1501 6.42663 16.5517 6.71067 16.818 6.91905C16.9509 7.02306 17.0493 7.10767 17.1117 7.16338C17.1428 7.19121 17.1649 7.21177 17.1777 7.22385C17.184 7.22989 17.1881 7.23381 17.1898 7.23545C17.1906 7.23627 17.1908 7.23652 17.1905 7.23618C17.1903 7.23601 17.19 7.23569 17.1895 7.23523C17.1893 7.23499 17.189 7.23472 17.1887 7.23442C17.1886 7.23426 17.1883 7.234 17.1882 7.23393C17.188 7.23366 17.1877 7.23338 17.8948 6.52626C18.6019 5.81914 18.6016 5.81884 18.6013 5.81853C18.6012 5.81842 18.6008 5.8181 18.6006 5.81787C18.6001 5.81741 18.5996 5.81691 18.5991 5.81637C18.598 5.81529 18.5968 5.81406 18.5954 5.81268C18.5926 5.80991 18.5891 5.80654 18.5851 5.80258C18.5769 5.79466 18.5663 5.78438 18.5531 5.77192C18.5268 5.747 18.4905 5.71328 18.4443 5.67204C18.3521 5.5896 18.2203 5.47683 18.0505 5.34401C17.7115 5.07872 17.2184 4.7312 16.5841 4.38523C15.3158 3.69346 13.4676 3 11.1578 3V5ZM5 14.9474C5 14.1045 5.68334 13.4211 6.52636 13.4211V11.4211C4.57884 11.4211 3 12.9999 3 14.9474H5ZM6.52636 13.4211C7.36938 13.4211 8.05272 14.1045 8.05272 14.9474H10.0527C10.0527 12.9999 8.47388 11.4211 6.52636 11.4211V13.4211ZM8.05272 14.9474C8.05272 15.7903 7.36938 16.4736 6.52636 16.4736V18.4736C8.47388 18.4736 10.0527 16.8949 10.0527 14.9474H8.05272ZM6.52636 16.4736C5.68334 16.4736 5 15.7903 5 14.9474H3C3 16.8949 4.57884 18.4736 6.52636 18.4736V16.4736ZM19.579 16.6317C18.779 16.0316 18.7793 16.0313 18.7795 16.0311C18.7795 16.031 18.7797 16.0307 18.7799 16.0305C18.7801 16.0302 18.7803 16.03 18.7805 16.0297C18.7808 16.0293 18.781 16.0291 18.781 16.029C18.781 16.029 18.7805 16.0297 18.7794 16.0311C18.7771 16.0341 18.7725 16.04 18.7656 16.0488C18.7517 16.0663 18.7285 16.0951 18.6963 16.1335C18.6317 16.2104 18.5312 16.3255 18.3965 16.466C18.1263 16.748 17.7232 17.1276 17.2014 17.5071C16.1539 18.2688 14.6718 19 12.8421 19V21C15.2229 21 17.1093 20.047 18.3777 19.1246C19.0138 18.662 19.5054 18.1995 19.8405 17.8499C20.0084 17.6747 20.1382 17.5266 20.2282 17.4193C20.2733 17.3656 20.3085 17.322 20.3337 17.2902C20.3462 17.2743 20.3563 17.2613 20.3639 17.2515C20.3677 17.2466 20.3708 17.2425 20.3734 17.2392C20.3746 17.2375 20.3757 17.236 20.3767 17.2348C20.3771 17.2342 20.3776 17.2336 20.378 17.2331C20.3781 17.2328 20.3784 17.2325 20.3785 17.2323C20.3788 17.232 20.379 17.2317 19.579 16.6317ZM12.8421 19C10.9412 19 9.42098 18.4303 8.37344 17.859C7.84983 17.5734 7.4482 17.2893 7.18192 17.081C7.04901 16.9769 6.95054 16.8923 6.88819 16.8366C6.85704 16.8088 6.83498 16.7882 6.82223 16.7761C6.81585 16.7701 6.81181 16.7662 6.81012 16.7646C6.80928 16.7637 6.80903 16.7635 6.80937 16.7638C6.80955 16.764 6.80987 16.7643 6.81033 16.7648C6.81057 16.765 6.81084 16.7653 6.81115 16.7656C6.8113 16.7657 6.81156 16.766 6.81164 16.7661C6.81191 16.7663 6.81219 16.7666 6.1051 17.4737C5.398 18.1809 5.3983 18.1812 5.39861 18.1815C5.39872 18.1816 5.39904 18.1819 5.39927 18.1821C5.39974 18.1826 5.40024 18.1831 5.40078 18.1836C5.40187 18.1847 5.40311 18.1859 5.40451 18.1873C5.40732 18.1901 5.41075 18.1935 5.41482 18.1974C5.42295 18.2053 5.43361 18.2156 5.44677 18.2281C5.47307 18.253 5.50941 18.2867 5.55556 18.328C5.64782 18.4104 5.77962 18.5232 5.94934 18.656C6.28834 18.9213 6.78146 19.2688 7.41576 19.6148C8.68405 20.3065 10.5323 21 12.8421 21V19Z" fill="currentColor"/>
</svg>
