<svg width="24" height="24" viewBox="0 0 24 24" fill="none" xmlns="http://www.w3.org/2000/svg">
<path fill-rule="evenodd" clip-rule="evenodd" d="M8.9 13.151C9.05759 13.2668 9.19035 13.4118 9.29071 13.5779C9.39107 13.7439 9.45707 13.9277 9.48492 14.1187C9.51278 14.3098 9.50196 14.5043 9.45307 14.6912C9.40418 14.8781 9.31819 15.0538 9.2 15.2082L7.7 17.1673C7.56028 17.3498 7.3791 17.498 7.17082 17.6C6.96254 17.702 6.73287 17.7551 6.5 17.7551H4.5C4.10218 17.7551 3.72064 17.6003 3.43934 17.3247C3.15804 17.0492 3 16.6754 3 16.2857C3 15.896 3.15804 15.5223 3.43934 15.2467C3.72064 14.9711 4.10218 14.8163 4.5 14.8163H5.75L6.8 13.4449C6.91819 13.2905 7.06626 13.1605 7.23576 13.0622C7.40526 12.9638 7.59286 12.8992 7.78787 12.8719C7.98287 12.8446 8.18145 12.8552 8.37227 12.9031C8.56309 12.951 8.74241 13.0352 8.9 13.151Z" fill="currentcolor"/>
<path d="M19.737 15.0088H18.135L17.85 14.8805C17.12 14.086 15.938 12.359 14.9475 11.7659C14.5365 11.5171 14.0626 11.3861 13.5795 11.3878H10.75L11.043 17.7551H13.4075C13.8007 17.754 14.1888 17.6677 14.544 17.5024C14.9096 17.3314 15.235 17.0879 15.4995 16.7873L15.7845 16.4664C16.144 16.8578 16.476 17.7551 17.0095 17.7551H19.804C20.139 17.7551 20.393 17.6106 20.63 17.353C20.867 17.0953 21 16.7461 21 16.3822C21 16.0178 20.867 15.6686 20.63 15.4114C20.393 15.1538 20.072 15.0088 19.737 15.0088ZM20 7.71429C20 8.55865 19.6576 9.36843 19.0481 9.96548C18.4386 10.5625 17.612 10.898 16.75 10.898C15.888 10.898 15.0614 10.5625 14.4519 9.96548C13.8424 9.36843 13.5 8.55865 13.5 7.71429C13.5 6.86992 13.8424 6.06014 14.4519 5.46309C15.0614 4.86603 15.888 4.53061 16.75 4.53061C17.612 4.53061 18.4386 4.86603 19.0481 5.46309C19.6576 6.06014 20 6.86992 20 7.71429Z" fill="currentcolor"/>
<path fill-rule="evenodd" clip-rule="evenodd" d="M16.75 9.91837C17.3467 9.91837 17.919 9.68615 18.341 9.27281C18.7629 8.85946 19 8.29885 19 7.71429C19 7.12973 18.7629 6.56911 18.341 6.15577C17.919 5.74242 17.3467 5.5102 16.75 5.5102C16.1533 5.5102 15.581 5.74242 15.159 6.15577C14.7371 6.56911 14.5 7.12973 14.5 7.71429C14.5 8.29885 14.7371 8.85946 15.159 9.27281C15.581 9.68615 16.1533 9.91837 16.75 9.91837ZM16.75 10.898C17.612 10.898 18.4386 10.5625 19.0481 9.96548C19.6576 9.36843 20 8.55865 20 7.71429C20 6.86992 19.6576 6.06014 19.0481 5.46309C18.4386 4.86603 17.612 4.53061 16.75 4.53061C15.888 4.53061 15.0614 4.86603 14.4519 5.46309C13.8424 6.06014 13.5 6.86992 13.5 7.71429C13.5 8.55865 13.8424 9.36843 14.4519 9.96548C15.0614 10.5625 15.888 10.898 16.75 10.898Z" fill="currentcolor"/>
</svg>
