<svg width="24" height="24" viewBox="0 0 24 24" fill="none" xmlns="http://www.w3.org/2000/svg">
<path d="M10.8499 2C12.7925 2.00013 14.6686 2.70688 16.1285 3.98843C17.5883 5.26999 18.5322 7.03882 18.7839 8.965L21.0339 12.504C21.1819 12.737 21.1519 13.084 20.8089 13.232L18.8499 14.07V17C18.8499 17.5304 18.6392 18.0391 18.2641 18.4142C17.889 18.7893 17.3803 19 16.8499 19H14.8509L14.8499 22H5.84991V18.306C5.84991 17.126 5.41391 16.009 4.60591 15.001C3.66366 13.8245 3.07295 12.4058 2.90183 10.9082C2.7307 9.4107 2.98613 7.89528 3.63868 6.53656C4.29123 5.17785 5.31435 4.03113 6.59018 3.22851C7.866 2.4259 9.34262 2.00004 10.8499 2ZM10.8499 7C10.5847 7 10.3303 7.10536 10.1428 7.29289C9.95526 7.48043 9.84991 7.73478 9.84991 8V8.999L8.84991 9C8.58469 9 8.33033 9.10536 8.1428 9.29289C7.95526 9.48043 7.84991 9.73478 7.84991 10C7.84991 10.2652 7.95526 10.5196 8.1428 10.7071C8.33033 10.8946 8.58469 11 8.84991 11L9.84991 10.999V12C9.84991 12.2652 9.95526 12.5196 10.1428 12.7071C10.3303 12.8946 10.5847 13 10.8499 13C11.1151 13 11.3695 12.8946 11.557 12.7071C11.7445 12.5196 11.8499 12.2652 11.8499 12V11H12.8499C13.1151 11 13.3695 10.8946 13.557 10.7071C13.7445 10.5196 13.8499 10.2652 13.8499 10C13.8499 9.73478 13.7445 9.48043 13.557 9.29289C13.3695 9.10536 13.1151 9 12.8499 9H11.8499V8C11.8499 7.73478 11.7445 7.48043 11.557 7.29289C11.3695 7.10536 11.1151 7 10.8499 7Z" fill="currentcolor"/>
</svg>
