<svg width="24" height="24" viewBox="0 0 24 24" fill="none" xmlns="http://www.w3.org/2000/svg">
<path d="M18 16.5C17.85 16.35 17.771 16.154 17.763 15.912C17.7543 15.6707 17.8167 15.4583 17.95 15.275C18.3 14.8083 18.5667 14.2957 18.75 13.737C18.9333 13.179 19.025 12.6 19.025 12C19.025 11.4 18.9333 10.8207 18.75 10.262C18.5667 9.704 18.3 9.19167 17.95 8.725C17.8167 8.54167 17.75 8.33333 17.75 8.1C17.75 7.86667 17.8333 7.66667 18 7.5C18.2333 7.26667 18.504 7.15833 18.812 7.175C19.1207 7.19167 19.3667 7.31667 19.55 7.55C20.0333 8.18333 20.4 8.879 20.65 9.637C20.9 10.3957 21.025 11.1833 21.025 12C21.025 12.8167 20.9 13.6043 20.65 14.363C20.4 15.121 20.0333 15.8167 19.55 16.45C19.3667 16.6833 19.1207 16.8083 18.812 16.825C18.504 16.8417 18.2333 16.7333 18 16.5ZM15.475 13.975C15.3417 13.8417 15.2627 13.6667 15.238 13.45C15.2127 13.2333 15.25 13.0083 15.35 12.775C15.4 12.6417 15.4417 12.5123 15.475 12.387C15.5083 12.2623 15.525 12.1333 15.525 12C15.525 11.8667 15.5083 11.7373 15.475 11.612C15.4417 11.4873 15.4 11.3583 15.35 11.225C15.25 10.9917 15.2127 10.7667 15.238 10.55C15.2627 10.3333 15.3417 10.1583 15.475 10.025C15.7417 9.75833 16.0377 9.646 16.363 9.688C16.6877 9.72933 16.925 9.89167 17.075 10.175C17.225 10.4583 17.3377 10.75 17.413 11.05C17.4877 11.35 17.525 11.6667 17.525 12C17.525 12.3333 17.4877 12.65 17.413 12.95C17.3377 13.25 17.225 13.5417 17.075 13.825C16.925 14.1083 16.6877 14.2707 16.363 14.312C16.0377 14.354 15.7417 14.2417 15.475 13.975ZM5 23C4.45 23 3.97933 22.8043 3.588 22.413C3.196 22.021 3 21.55 3 21V3C3 2.45 3.196 1.979 3.588 1.587C3.97933 1.19567 4.45 1 5 1H15C15.55 1 16.021 1.19567 16.413 1.587C16.8043 1.979 17 2.45 17 3V7H15V6H5V18H15V17H17V21C17 21.55 16.8043 22.021 16.413 22.413C16.021 22.8043 15.55 23 15 23H5Z" fill="currentcolor"/>
</svg>
