<svg width="24" height="24" viewBox="0 0 24 24" fill="none" xmlns="http://www.w3.org/2000/svg">
<path d="M22.4593 6C21.6893 6.35 20.8593 6.58 19.9993 6.69C20.8793 6.16 21.5593 5.32 21.8793 4.31C21.0493 4.81 20.1293 5.16 19.1593 5.36C18.3693 4.5 17.2593 4 15.9993 4C13.6493 4 11.7293 5.92 11.7293 8.29C11.7293 8.63 11.7693 8.96 11.8393 9.27C8.27931 9.09 5.10931 7.38 2.99931 4.79C2.62931 5.42 2.41931 6.16 2.41931 6.94C2.41931 8.43 3.16931 9.75 4.32931 10.5C3.61931 10.5 2.95931 10.3 2.37931 10V10.03C2.37931 12.11 3.85931 13.85 5.81931 14.24C5.19003 14.4122 4.5294 14.4362 3.88931 14.31C4.16091 15.1625 4.69284 15.9084 5.41032 16.4429C6.1278 16.9775 6.99475 17.2737 7.88931 17.29C6.37294 18.4904 4.4933 19.1393 2.55931 19.13C2.21931 19.13 1.87931 19.11 1.53931 19.07C3.43931 20.29 5.69931 21 8.11931 21C15.9993 21 20.3293 14.46 20.3293 8.79C20.3293 8.6 20.3293 8.42 20.3193 8.23C21.1593 7.63 21.8793 6.87 22.4593 6V6Z" fill="currentcolor"/>
</svg>
