<svg width="24" height="24" viewBox="0 0 24 24" fill="none" xmlns="http://www.w3.org/2000/svg">
<path d="M20.0603 18.0811C20.1651 18.1856 20.2484 18.3098 20.3051 18.4465C20.3619 18.5833 20.3911 18.7299 20.3911 18.8779C20.3911 19.026 20.3619 19.1726 20.3051 19.3093C20.2484 19.4461 20.1651 19.5703 20.0603 19.6748C19.848 19.8843 19.5617 20.0018 19.2634 20.0018C18.9651 20.0018 18.6788 19.8843 18.4665 19.6748L12.5134 13.7217L6.56026 19.6748C6.34796 19.8843 6.06167 20.0018 5.76338 20.0018C5.46509 20.0018 5.1788 19.8843 4.96651 19.6748C4.86163 19.5703 4.77841 19.4461 4.72163 19.3093C4.66485 19.1726 4.63562 19.026 4.63562 18.8779C4.63562 18.7299 4.66485 18.5833 4.72163 18.4465C4.77841 18.3098 4.86163 18.1856 4.96651 18.0811L10.9196 12.1279L4.96651 6.1748C4.75516 5.96346 4.63643 5.67681 4.63643 5.37793C4.63643 5.22993 4.66558 5.08339 4.72222 4.94666C4.77885 4.80993 4.86186 4.6857 4.96651 4.58105C5.07115 4.47641 5.19539 4.3934 5.33212 4.33676C5.46884 4.28013 5.61539 4.25098 5.76338 4.25098C6.06227 4.25098 6.34891 4.36971 6.56026 4.58105L12.5134 10.5342L18.4665 4.58105C18.6779 4.36971 18.9645 4.25098 19.2634 4.25098C19.5623 4.25098 19.8489 4.36971 20.0603 4.58105C20.2716 4.7924 20.3903 5.07904 20.3903 5.37793C20.3903 5.67681 20.2716 5.96346 20.0603 6.1748L14.1071 12.1279L20.0603 18.0811Z" fill="black"/>
</svg>
