<svg width="24" height="24" viewBox="0 0 24 24" fill="none" xmlns="http://www.w3.org/2000/svg">
<path d="M12 3.875C16.5 3.875 20.125 7.5 20.125 12C20.125 16.5 16.5 20.125 12 20.125C7.5 20.125 3.875 16.5 3.875 12C3.875 7.5 7.5 3.875 12 3.875ZM12 2C6.5 2 2 6.5 2 12C2 17.5 6.5 22 12 22C17.5 22 22 17.5 22 12C22 6.5 17.5 2 12 2Z" fill="currentcolor"/>
<path d="M14.375 14.875C13.75 15.375 12.875 15.75 12 15.75C9.875 15.75 8.25 14.125 8.25 12C8.25 9.875 9.875 8.25 12 8.25C13 8.25 14 8.625 14.625 9.375L16 8C15 7 13.5 6.375 12 6.375C8.875 6.375 6.375 8.875 6.375 12C6.375 15.125 8.875 17.625 12 17.625C13.375 17.625 14.5 17.125 15.5 16.375L14.375 14.875Z" fill="currentcolor"/>
</svg>
