<svg width="24" height="24" viewBox="0 0 24 24" fill="none" xmlns="http://www.w3.org/2000/svg">
<path d="M19.0007 19H8.00073C7.45073 19 6.98007 18.8043 6.58873 18.413C6.19673 18.021 6.00073 17.55 6.00073 17V3C6.00073 2.45 6.19673 1.979 6.58873 1.587C6.98007 1.19567 7.45073 1 8.00073 1H15.0007L21.0007 7V17C21.0007 17.55 20.8051 18.021 20.4137 18.413C20.0217 18.8043 19.5507 19 19.0007 19ZM14.0007 8V3H8.00073V17H19.0007V8H14.0007ZM4.00073 23C3.45073 23 2.98007 22.8043 2.58873 22.413C2.19673 22.021 2.00073 21.55 2.00073 21V7H4.00073V21H15.0007V23H4.00073Z" fill="currentcolor"/>
</svg>
