<svg width="24" height="24" viewBox="0 0 24 24" fill="none" xmlns="http://www.w3.org/2000/svg">
<path d="M11.0868 22V20.1735C9.18417 19.9604 7.5519 19.1729 6.18995 17.811C4.8274 16.4484 4.03957 14.8158 3.82648 12.9132H2V11.0868H3.82648C4.03957 9.18417 4.8274 7.5516 6.18995 6.18904C7.5519 4.82709 9.18417 4.03957 11.0868 3.82648V2H12.9132V3.82648C14.8158 4.03957 16.4484 4.82709 17.811 6.18904C19.1729 7.5516 19.9604 9.18417 20.1735 11.0868H22V12.9132H20.1735C19.9604 14.8158 19.1729 16.4484 17.811 17.811C16.4484 19.1729 14.8158 19.9604 12.9132 20.1735V22H11.0868ZM12 18.3927C13.7656 18.3927 15.2724 17.7686 16.5205 16.5205C17.7686 15.2724 18.3927 13.7656 18.3927 12C18.3927 10.2344 17.7686 8.72755 16.5205 7.47945C15.2724 6.23135 13.7656 5.60731 12 5.60731C10.2344 5.60731 8.72755 6.23135 7.47945 7.47945C6.23135 8.72755 5.60731 10.2344 5.60731 12C5.60731 13.7656 6.23135 15.2724 7.47945 16.5205C8.72755 17.7686 10.2344 18.3927 12 18.3927ZM12 15.653C10.9954 15.653 10.1355 15.2953 9.42009 14.5799C8.70472 13.8645 8.34703 13.0046 8.34703 12C8.34703 10.9954 8.70472 10.1355 9.42009 9.42009C10.1355 8.70472 10.9954 8.34703 12 8.34703C13.0046 8.34703 13.8645 8.70472 14.5799 9.42009C15.2953 10.1355 15.653 10.9954 15.653 12C15.653 13.0046 15.2953 13.8645 14.5799 14.5799C13.8645 15.2953 13.0046 15.653 12 15.653ZM12 13.8265C12.5023 13.8265 12.9324 13.6475 13.2904 13.2895C13.6478 12.9321 13.8265 12.5023 13.8265 12C13.8265 11.4977 13.6478 11.0676 13.2904 10.7096C12.9324 10.3522 12.5023 10.1735 12 10.1735C11.4977 10.1735 11.0679 10.3522 10.7105 10.7096C10.3525 11.0676 10.1735 11.4977 10.1735 12C10.1735 12.5023 10.3525 12.9321 10.7105 13.2895C11.0679 13.6475 11.4977 13.8265 12 13.8265Z" fill="currentcolor"/>
</svg>
